<svg width="189.19mm" height="189.19mm" version="1.1" viewBox="0 0 189.19 189.19" xmlns="http://www.w3.org/2000/svg">
 <g transform="translate(-13.357 -35.237)">
  <circle cx="107.95" cy="129.83" r="94.594" fill="#f9f9f9" style="paint-order:stroke fill markers"/>
  <circle cx="395.94" cy="163.93" r="107.07" fill="#e6e6e6" style="paint-order:stroke fill markers"/>
  <path d="m46.684 168.93c-0.52782-2.0872-0.53483-2.708-0.46463-41.133l0.07128-39.014 0.68112-2.1594c0.86862-2.7539 2.0528-4.738 4.2137-7.0599 3.088-3.3182 6.794-5.2396 11.842-6.1397 3.0231-0.539 83.169-0.55482 86.75-0.01712 10.026 1.5057 16.412 7.9434 16.958 17.096 0.12959 2.1703 0.2406 2.6219 0.81278 3.3073 1.4739 1.7654 1.4983 1.9405 1.6408 11.774l0.13229 9.1281 0.64017 0.89759c0.35209 0.49367 0.91481 1.5652 1.2505 2.3812 0.60179 1.4629 0.61037 1.6298 0.61402 11.935l4e-3 10.451-0.65758 1.4126c-0.36168 0.77691-0.92606 1.7889-1.2542 2.249-0.59116 0.82877-0.25944 0.94817-0.7289 12.081-0.2663 6.315 0.78525 13.344-2.8368 18.603-2.6301 3.6057-6.6719 6.4024-10.789 7.9282l-1.5875 0.5883c-8.7166 4.2348-37.445 3.3374-46.072 3.3073-16.204 0-35.693 0.57589-43.138-0.87869-8.0609-1.5748-16.087-9.3934-18.083-16.737zm103.32 7.8669c4.2555-1.4272 7.0888-3.7631 8.7075-7.1788l0.81752-1.7251 0.1618-19.711h-5.5858v2.7589c0 2.6654-0.0237 2.7775-0.69714 3.3073-0.87661 0.68954-1.5372 0.69527-2.2133 0.0192-0.46145-0.46146-0.52916-0.88195-0.52916-3.2861v-2.7569l-7.6068-0.11362c-6.7211-0.1004-7.8378-0.17869-9.5912-0.67242-5.5552-1.5643-10.035-5.4298-12.44-10.734-1.0699-2.3595-1.4084-4.4613-1.2514-7.7695 0.23408-4.9326 1.7098-8.1946 5.3571-11.842 2.4161-2.4161 4.6318-3.808 7.6729-4.8201l2.1167-0.70443 24.766-0.1972-0.0796-10.897-0.0796-10.897-0.98817-2.0695c-1.745-3.6545-5.0678-6.1781-8.9337-6.7847-1.1161-0.17515-16.44-0.26921-43.656-0.26797-45.035 0.0021-43.647-0.03726-46.292 1.3117-1.7422 0.88878-4.2016 3.1254-5.0354 4.5793-0.43503 0.75854-0.79209 1.4635-0.79345 1.5667-0.0014 0.10313 0.5866-0.17868 1.3066-0.62625 0.72996-0.45377 1.8259-0.87201 2.4773-0.94544 1.0056-0.11335 1.2285-0.0456 1.6013 0.48668 0.56239 0.80293 0.55061 1.6427-0.0299 2.1308-0.25466 0.21411-1.2565 0.7708-2.2263 1.2371-2.0124 0.96754-3.1755 2.159-4.1631 4.2644l-0.68821 1.4673-0.07549 31.353c-0.04709 19.557 0.02206 31.982 0.18379 33.025 0.52626 3.3939 2.2667 5.716 5.5739 7.4366 2.0012 1.0412 2.1231 1.1546 2.1231 1.9762 0 1.8889-1.5992 2.1991-4.3412 0.84214-0.73049-0.36152-1.3624-0.62303-1.4043-0.58115-0.04189 0.0419 0.39879 0.73942 0.97928 1.5501 1.4988 2.0931 4.2828 3.9986 7.2428 4.9574 3.1365 1.016 3.496 1.0238 45.281 0.97717l40.481-0.0451zm-84.534-5.5966c-0.6611-0.6611-0.68371-1.8948-0.04531-2.4725 0.39372-0.35632 1.0761-0.43788 3.6632-0.43788 2.744 0 3.2393 0.0662 3.6172 0.48385 0.59396 0.65632 0.55154 1.7837-0.09128 2.4266-0.46782 0.46782-0.88194 0.52917-3.5719 0.52917-2.6899 0-3.1041-0.0614-3.5719-0.52917zm12.965 0c-0.6611-0.6611-0.68371-1.8948-0.04531-2.4725 0.61834-0.55959 5.4926-0.63705 6.2285-0.099 0.61839 0.45217 0.63748 1.9052 0.0338 2.5723-0.41624 0.45995-0.8155 0.52837-3.083 0.52837-2.252 0-2.6765-0.0717-3.134-0.52917zm12.19-0.16797c-0.68954-0.87661-0.69528-1.5372-0.0192-2.2133 0.51288-0.51287 0.88194-0.52916 11.989-0.52916 11.167 0 11.474 0.0138 12.039 0.53947 0.75623 0.70453 0.733 1.4473-0.0704 2.2507l-0.64943 0.64943h-22.74zm30.098 0.42293c-0.67587-0.39437-0.87373-1.7439-0.36869-2.5147 0.39957-0.60982 0.573-0.6507 2.7605-0.6507 2.588 0 3.2099 0.32442 3.2099 1.6745 0 1.3116-0.80416 1.7661-3.1088 1.757-1.1278-4e-3 -2.2496-0.12419-2.4929-0.26616zm11.331-0.20964c-0.5812-0.64222-0.55692-1.9722 0.046-2.5178 0.71976-0.65138 4.0332-0.61851 4.6345 0.046 0.58121 0.64222 0.55692 1.9722-0.046 2.5178-0.71976 0.65137-4.0332 0.61851-4.6345-0.046zm10.741-0.10118c-0.32742-0.35184-0.59531-0.89128-0.59531-1.1988 0-0.6448 1.158-1.6558 1.8966-1.6558 0.80487 0 3.0325-1.2426 4.0478-2.2578 1.2666-1.2666 2.273-3.3404 2.4491-5.0463 0.0893-0.86542 0.32709-1.5748 0.6152-1.8356 0.66547-0.60224 1.8213-0.38483 2.4498 0.46082 0.48371 0.65079 0.50517 0.8672 0.24294 2.4497-0.40486 2.4432-1.3869 4.408-3.102 6.2061-1.7872 1.8737-4.1284 3.1855-6.0281 3.3777-1.2169 0.12308-1.4513 0.0638-1.976-0.50006zm8.3092-62.87c-0.32108-0.35479-0.43788-0.98595-0.43788-2.3662 0-1.6453 0.0741-1.9343 0.58804-2.2943 0.82869-0.58044 1.4513-0.51328 2.2021 0.23756 0.87265 0.87265 0.92754 3.159 0.10106 4.2097-0.65241 0.82941-1.8051 0.92962-2.4533 0.21328zm0.0913-9.3057c-0.30775-0.30775-0.53187-0.88896-0.53563-1.3891-0.0289-3.8395-2.768-7.1805-6.5133-7.9445-0.88304-0.18013-1.8014-0.49006-2.0408-0.68875-0.54783-0.45466-0.5576-1.327-0.0234-2.0897 0.35161-0.502 0.65611-0.58804 2.0811-0.58804 3.2866 0 7.2226 2.805 8.8165 6.2832 0.51333 1.1202 0.72728 2.0869 0.81032 3.6614 0.10963 2.0784 0.0921 2.1556-0.61519 2.712-0.90264 0.71003-1.3042 0.71886-1.9796 0.04351zm-83.449-9.5014c-2.4656-0.14681-2.6502-0.19844-3.1605-0.88353l-0.54194-0.7276 0.54266-0.7276c0.53699-0.72 0.57835-0.7284 3.9543-0.80355 3.2175-0.07162 3.4379-0.04361 3.8746 0.49233 0.94665 1.1618 0.30705 2.5237-1.2741 2.713-0.42701 0.05111-1.9547 0.02275-3.395-0.063zm35.162-0.06256c-0.72213-0.42676-0.91724-0.76447-0.92199-1.5958-9e-3 -1.6063-0.75066-1.5403 17.304-1.5403 15.626 0 16.499 0.02498 16.914 0.48385 0.56024 0.61906 0.56467 1.992 8e-3 2.454-0.5931 0.49223-32.486 0.68202-33.304 0.19819zm-24.686-0.27857c-0.48195-0.48195-0.3829-1.9225 0.16635-2.4196 0.38244-0.3461 1.0393-0.43788 3.134-0.43788 2.9653 0 3.5259 0.27883 3.5259 1.7539 0 1.2787-0.35814 1.4211-3.5719 1.4211-1.9315 0-3.0456-0.10869-3.2544-0.3175zm12.444 0.0083c-0.46345-0.46345-0.4034-1.9567 0.09889-2.459 0.34505-0.34505 0.92644-0.41064 3.0994-0.34963 2.6097 0.07327 2.6845 0.09276 3.081 0.8027 0.36543 0.65432 0.36542 0.80089-5e-5 1.4552-0.39827 0.71304-0.46193 0.7291-3.1799 0.80208-1.9315 0.05187-2.8724-0.02445-3.0993-0.25135zm71.639 42.444c-8e-4 -5.2176-0.11416-9.5999-0.262-10.132-0.14329-0.51578-0.67856-1.343-1.1895-1.8382-0.75235-0.72921-1.2182-0.93653-2.45-1.0904-2.0999-0.26233-18.782-0.25502-21.302 9e-3 -3.945 0.41393-7.3408 2.8186-9.1915 6.5088-0.88209 1.7589-0.92586 1.9775-0.92586 4.6243 0 2.4842 0.0777 2.9441 0.73478 4.3471 0.98193 2.0967 2.2433 3.585 4.0612 4.7916 2.938 1.9501 2.8791 1.9435 17.495 1.9595l13.031 0.0142-2e-3 -9.1943zm-25.232 4.0596c-2.5119-0.93517-4.1348-3.151-4.1348-5.6455 0-2.5583 1.1885-4.3958 3.5719-5.5226 5.4096-2.5574 10.971 3.0646 8.1298 8.219-1.0718 1.9446-2.8124 3.0907-4.8976 3.2248-1.0316 0.0663-2.0266-0.0365-2.6693-0.27573zm30.79-5.1179c-2.6e-4 -9.2309-0.0465-10.345-0.46302-11.179-0.41684-0.83443-0.58404-0.9339-1.6901-1.0055l-1.2275-0.0794c2.1796 3.578 1.2644 8.0463 1.2644 12.33 0 5.4081 0.0794 9.9123 0.17639 10.009 0.097 0.097 0.57326 0.17639 1.0583 0.17639h0.88194l-5.3e-4 -10.253z" fill="#1b2b38"/>
  <text transform="scale(.96725 1.0339)" x="77.180031" y="150.83197" fill="#1b2b38" font-family="'Book Antiqua'" font-size="87.534px" stroke-linecap="round" stroke-linejoin="round" stroke-width="2.265" style="line-height:1.25;paint-order:stroke fill markers" xml:space="preserve"><tspan x="77.180031" y="150.83197" fill="#1b2b38" font-family="'Book Antiqua'" stroke-linecap="round" stroke-linejoin="round" stroke-width="2.265" style="paint-order:stroke fill markers">t</tspan></text>
  <path d="m456.91 184.33c1.7817 0 4.9541 0.61304 6.123-1.0935 1.3068-1.9082 0.4916-6.196 0.4916-8.4315v-20.108c0-2.1706 0.72813-6.0084-0.55271-7.878-1.1613-1.6949-4.3003-1.1179-6.0619-1.1179 0-9.158 1.6499-20.055-2.3522-28.575-3.6542-7.7801-11.15-12.908-19.608-13.947-4.0383-0.49583-8.3669-0.0757-12.435-0.0757h-60.854c-3.887 0-8.0515-0.42413-11.906 0.0765-8.5894 1.1158-15.727 6.6987-19.372 14.476-1.2523 2.6715-1.9828 5.7812-2.055 8.7312-0.50509 20.61-4e-3 41.296-4e-3 61.912 0 12.034-0.67945 22.959 9.525 31.41 7.7917 6.4524 18.119 5.1028 27.517 5.1028h56.356c8.9307 0 18.627 0.87868 25.929-5.371 10.893-9.3231 9.2604-22.181 9.2604-35.11m-12.965-38.629c-7.8809 0-16.477-1.084-23.283 3.7155-10.862 7.6594-11.054 25.475 1.0583 32.185 6.5124 3.6079 14.99 2.7284 22.225 2.7284 0 6.8903 1.6621 16.167-2.2616 22.225-3.4449 5.3189-8.0862 5.0752-13.613 5.6012-10.574 1.0062-21.425-0.0439-32.015-0.045v-71.438h26.988v-12.965h-67.469v12.965h26.987v71.438h-24.077c-4.8779 0-9.6374 0.42757-13.448-3.2515-5.3986-5.2115-4.014-13.52-4.014-20.296v-49.212c0-6.7466-1.4301-15.249 4.2436-20.257 5.5761-4.9212 14.262-3.2912 21.156-3.2912h51.065c6.4807 0 16.464-1.6261 21.696 2.9594 7.1803 6.2939 4.7625 18.386 4.7625 26.939m-12.965 11.457c10.542-1.5571 12.189 14.264 2.1167 15.635-9.1022 1.239-11.344-14.272-2.1167-15.635m-5.5562 9.7099 0.26459 0.26458-0.26459-0.26458m0.26459 0.52917 0.26458 0.26458-0.26458-0.26458m0.26458 0.52916 0.26458 0.26459-0.26458-0.26459m2.1167 1.8521 0.26459 0.26458-0.26459-0.26458m7.1438 0.79375 0.26459 0.26458-0.26459-0.26458m-0.52916 0.26458 0.26458 0.26458-0.26458-0.26458m-3.4396 0.26458v0.26459h2.9104l-2.9104-0.26459m4.2333 0 0.26458 0.26459z" fill="#1b2b38"/>
 </g>
</svg>
